<?xml version="1.0" encoding="utf-8"?>
<!-- Generator: Adobe Illustrator 24.0.0, SVG Export Plug-In . SVG Version: 6.00 Build 0)  -->
<svg version="1.1" id="Calque_1" xmlns="http://www.w3.org/2000/svg" xmlns:xlink="http://www.w3.org/1999/xlink" x="0px" y="0px"
	 viewBox="0 0 1920 1080" style="enable-background:new 0 0 1920 1080;" xml:space="preserve">
<style type="text/css">
	.st0{display:none;}
	.st1{font-family:'CandyBeans';}
	.st2{font-size:230.3343px;}
	.st3{font-family:'LilitaOne';}
</style>
<text transform="matrix(1 0 0 1 -518.21 627.4521)" class="st0 st1 st2">LUD-IN</text>
<text transform="matrix(1 0 0 1 -545.4336 372.2422)" class="st0 st3 st2">LUD-IN</text>
<g>
	<path d="M817.82,448.7c0.3,7.2,0.45,14.06,0.45,20.58c0,18.15-1.8,39.1-5.4,62.87c-3.6,23.77-8.92,39.07-15.97,45.89
		c-4.57,4.42-9.3,6.63-14.17,6.63c-2.55,0-6.43-1.22-11.64-3.66c-5.21-2.44-10.85-10.03-16.93-22.77
		c-6.07-12.75-10.2-29.43-12.37-50.05c-0.75-7.27-1.12-14.96-1.12-23.06c0-14.77,1.27-30.97,3.82-48.59l-56.01,4.84
		c-9.67,29.77-14.51,56.68-14.51,80.75c0,18.27,2.05,34.73,6.13,49.4l-73.05,46.65l39.93-156.89l-68.83-42.74l-14.06,253.95
		l105.27-23.84l14.99-64.36c0.08,0.21,0.16,0.43,0.25,0.64c7.09,17.81,16.46,32.13,28.12,42.96c11.66,10.83,24.31,17.83,37.96,20.98
		c5.25,1.27,10.42,1.91,15.52,1.91c8.32,0,17.79-2.08,28.4-6.24c10.61-4.16,20.92-13.33,30.93-27.5
		c10.01-14.17,17.19-33.14,21.54-56.91c2.32-20.24,3.49-41.91,3.49-65.01c0-9.97-0.9-22.94-2.7-38.91L817.82,448.7z"/>
	<path d="M972.35,443.19c-17.02-8.47-32.67-13.33-46.96-14.56c-14.28-1.24-25.51-1.86-33.68-1.86c-12.22,0-24.44,0.79-36.66,2.36
		c1.05,73.18,2.21,146.36,3.49,219.54l1.57,0.11c12.22,0,25.46-3.56,39.7-10.68c14.92-7.35,29.48-17.3,43.69-29.86
		c14.21-12.56,26.69-26.5,37.45-41.84c10.76-15.33,17.81-28.87,21.14-40.6c3.34-11.73,5.01-21.2,5.01-28.4
		c0-7.27-1.13-14.28-3.38-21.03C999.16,462.95,988.7,451.89,972.35,443.19z M938.5,519.78c-3.45,10.35-8.21,19.72-14.28,28.12
		c-6.07,8.4-12.48,14.25-19.23,17.54l-15.41-101.11c5.02-0.6,9.67-0.9,13.95-0.9c10.12,0,18.07,1.76,23.84,5.29
		c8.17,5.1,12.69,10.63,13.55,16.59c0.86,5.96,1.29,10.29,1.29,12.99C942.21,505.2,940.97,512.36,938.5,519.78z"/>
	<path d="M1119.05,582.25c0.61-2.3,0.92-4.53,0.92-6.68c0-2.15-0.31-4.38-0.92-6.68c-1.23-4.45-3.22-6.68-5.99-6.68h-90.98
		c-2.76,0-4.76,2.23-5.99,6.68c-0.62,2.3-0.92,4.53-0.92,6.68c0,2.15,0.31,4.38,0.92,6.68c1.23,4.46,3.22,6.68,5.99,6.68h90.98
		C1115.82,588.93,1117.82,586.71,1119.05,582.25z"/>
	<polygon points="1359.8,425.08 1358,571.18 1309.86,439.7 1259.48,452.75 1266.79,628.99 1293.89,634.95 1299.85,543.4 
		1353.16,667.79 1399.61,662.73 1435.38,434.64 	"/>
	<path d="M1230.82,616.11c-4.57-6.72-7.86-14.06-9.42-21.97c-1.91-9.66-3.99-19.4-4.6-29.18c-1.39-22.29-1.93-44.64-2.8-66.96
		c-0.04-1.03-0.01-2.06-0.01-3.04c-18.04,0-35.57,0-53.38,0c0,1.9,0.01,3.61,0,5.32c-0.19,26.59-0.69,53.15-4.54,79.53
		c-1.98,13.51-5.23,26.59-13.34,37.96c-0.67,0.94-1.12,2.03-1.87,3.4c31.22,0,61.84,0,92.96,0
		C1232.66,619.22,1231.83,617.6,1230.82,616.11z"/>
	<path d="M1187.33,474.67c23.92-0.01,43.25-19.33,43.29-43.25c0.04-23.85-19.37-43.35-43.21-43.39
		c-24.01-0.04-43.56,19.51-43.46,43.47C1144.05,455.44,1163.39,474.69,1187.33,474.67z"/>
	<path d="M1250.41,641.43c-42.08-0.06-84.17-0.09-126.25,0.1c-2.9,0.01-6.17,1.41-8.62,3.11c-4.6,3.19-6.02,9.33-4.15,14.59
		c1.88,5.26,6.7,8.8,12.44,8.82c21.04,0.05,42.08,0.02,63.13,0.02s42.08,0.03,63.13-0.01c7.9-0.01,13.92-5.84,13.91-13.29
		C1263.99,647.44,1258.08,641.44,1250.41,641.43z"/>
	<path d="M1237.28,625.37c-33.19-0.03-66.39-0.04-99.58,0.05c-2.29,0.01-4.87,0.68-6.8,1.49c-3.63,1.53-4.75,4.46-3.27,6.98
		c1.48,2.52,5.28,4.21,9.81,4.22c16.6,0.03,33.19,0.01,49.79,0.01c16.6,0,33.19,0.01,49.79-0.01c6.23-0.01,10.98-2.79,10.97-6.36
		C1247.99,628.25,1243.33,625.38,1237.28,625.37z"/>
	<path d="M1221.15,478.02c-20.83,0-41.66,0-62.48,0c-2.71,0-5.43-0.08-8.13,0.05c-2.83,0.14-5.38,1.47-5.93,4.22
		c-0.42,2.09-0.12,5.03,1.13,6.55c1.27,1.54,4.08,2.46,6.24,2.51c11.71,0.23,23.43,0.11,35.15,0.11c6.62,0,13.23,0,19.85,0
		c5.64,0,11.28,0.1,16.92-0.05c3.93-0.1,6.65-2.95,6.71-6.58c0.06-3.62-2.63-6.43-6.53-6.78
		C1223.11,477.96,1222.12,478.02,1221.15,478.02z"/>
</g>
</svg>
